<svg xmlns="http://www.w3.org/2000/svg" viewBox="0 0 512 512"><rect width="512" height="512" fill="#0a0c18"/><g stroke-linecap="round"><g stroke="#ffb347" stroke-width="14"><line x1="256" y1="256" x2="406.00" y2="256.00"/><line x1="256" y1="256" x2="385.90" y2="331.00"/><line x1="256" y1="256" x2="331.00" y2="385.90"/><line x1="256" y1="256" x2="256.00" y2="406.00"/><line x1="256" y1="256" x2="181.00" y2="385.90"/><line x1="256" y1="256" x2="126.10" y2="331.00"/><line x1="256" y1="256" x2="106.00" y2="256.00"/><line x1="256" y1="256" x2="126.10" y2="181.00"/><line x1="256" y1="256" x2="181.00" y2="126.10"/><line x1="256" y1="256" x2="256.00" y2="106.00"/><line x1="256" y1="256" x2="331.00" y2="126.10"/><line x1="256" y1="256" x2="385.90" y2="181.00"/></g><g fill="#ff5a2c"><circle cx="371.91" cy="287.06" r="13"/><circle cx="340.85" cy="340.85" r="13"/><circle cx="287.06" cy="371.91" r="13"/><circle cx="224.94" cy="371.91" r="13"/><circle cx="171.15" cy="340.85" r="13"/><circle cx="140.09" cy="287.06" r="13"/><circle cx="140.09" cy="224.94" r="13"/><circle cx="171.15" cy="171.15" r="13"/><circle cx="224.94" cy="140.09" r="13"/><circle cx="287.06" cy="140.09" r="13"/><circle cx="340.85" cy="171.15" r="13"/><circle cx="371.91" cy="224.94" r="13"/></g><circle cx="256" cy="256" r="30" fill="#ffd68a"/></g></svg>