<svg xmlns="http://www.w3.org/2000/svg" viewBox="0 0 512 512"><g stroke-linecap="round"><g stroke="#ffb347" stroke-width="15"><line x1="256" y1="256" x2="504.00" y2="256.00"/><line x1="256" y1="256" x2="470.77" y2="380.00"/><line x1="256" y1="256" x2="380.00" y2="470.77"/><line x1="256" y1="256" x2="256.00" y2="504.00"/><line x1="256" y1="256" x2="132.00" y2="470.77"/><line x1="256" y1="256" x2="41.23" y2="380.00"/><line x1="256" y1="256" x2="8.00" y2="256.00"/><line x1="256" y1="256" x2="41.23" y2="132.00"/><line x1="256" y1="256" x2="132.00" y2="41.23"/><line x1="256" y1="256" x2="256.00" y2="8.00"/><line x1="256" y1="256" x2="380.00" y2="41.23"/><line x1="256" y1="256" x2="470.77" y2="132.00"/></g><g fill="#ff5a2c"><circle cx="447.25" cy="307.25" r="15"/><circle cx="396.01" cy="396.01" r="15"/><circle cx="307.25" cy="447.25" r="15"/><circle cx="204.75" cy="447.25" r="15"/><circle cx="115.99" cy="396.01" r="15"/><circle cx="64.75" cy="307.25" r="15"/><circle cx="64.75" cy="204.75" r="15"/><circle cx="115.99" cy="115.99" r="15"/><circle cx="204.75" cy="64.75" r="15"/><circle cx="307.25" cy="64.75" r="15"/><circle cx="396.01" cy="115.99" r="15"/><circle cx="447.25" cy="204.75" r="15"/></g><circle cx="256" cy="256" r="34" fill="#ffd68a"/></g></svg>